<?xml version="1.0" encoding="UTF-8" standalone="no"?>
<svg
   xmlns:dc="http://purl.org/dc/elements/1.1/"
   xmlns:cc="http://creativecommons.org/ns#"
   xmlns:rdf="http://www.w3.org/1999/02/22-rdf-syntax-ns#"
   xmlns:svg="http://www.w3.org/2000/svg"
   xmlns="http://www.w3.org/2000/svg"
   xmlns:sodipodi="http://sodipodi.sourceforge.net/DTD/sodipodi-0.dtd"
   xmlns:inkscape="http://www.inkscape.org/namespaces/inkscape"
   width="200mm"
   height="200mm"
   viewBox="0 0 200 200"
   version="1.1"
   id="svg8"
   inkscape:version="1.0.1 (0767f8302a, 2020-10-17)"
   sodipodi:docname="amajorfundinginc.svg">
  <defs
     id="defs2">
    <rect
       x="52.870126"
       y="47.154295"
       width="188.39625"
       height="157.21486"
       id="rect912" />
  </defs>
  <sodipodi:namedview
     id="base"
     pagecolor="#ffffff"
     bordercolor="#666666"
     borderopacity="1.0"
     inkscape:pageopacity="0.0"
     inkscape:pageshadow="2"
     inkscape:zoom="0.35"
     inkscape:cx="120.38245"
     inkscape:cy="518.3341"
     inkscape:document-units="mm"
     inkscape:current-layer="layer1"
     inkscape:document-rotation="0"
     showgrid="false"
     inkscape:snap-global="false"
     inkscape:window-width="1920"
     inkscape:window-height="1129"
     inkscape:window-x="0"
     inkscape:window-y="0"
     inkscape:window-maximized="1" />
  <metadata
     id="metadata5">
    <rdf:RDF>
      <cc:Work
         rdf:about="">
        <dc:format>image/svg+xml</dc:format>
        <dc:type
           rdf:resource="http://purl.org/dc/dcmitype/StillImage" />
        <dc:title></dc:title>
      </cc:Work>
    </rdf:RDF>
  </metadata>
  <g
     inkscape:label="Layer 1"
     inkscape:groupmode="layer"
     id="layer1">
    <path
       style="fill:#395e8b;fill-opacity:1;stroke:none;stroke-width:0.264583px;stroke-linecap:butt;stroke-linejoin:miter;stroke-opacity:1"
       d="m 27.048044,154.2712 -1.942687,-4.91784 9.949645,7.59259 c -8.729009,-10.81456 -14.680308,-22.70872 0.349462,-42.75743 9.831691,-3.03143 23.976001,0.11342 26.315974,-13.64719 l 0.602469,-17.771188 c 1.854647,-4.477023 4.594466,-7.965365 9.281144,-9.279186 l 6.419033,7.010001 c 3.216894,1.516941 4.07228,0.48496 5.231675,0.17118 C 93.543888,69.652845 106.70577,50.559803 110.83842,36.922668 l -3.10738,-2.624311 c 0,0 4.60479,-4.779845 3.24062,-8.403897 8.58437,-12.64954 13.2627,-4.50048 18.29539,1.801172 l 0.83201,-1.37822 -6.84473,-8.237473 c -2.40028,-0.802324 -4.81096,-1.299812 -7.28864,0.167534 0,0 -12.46886,9.198602 -10.3449,19.20005 C 98.393628,50.02878 90.863931,62.426539 80.589997,73.159812 L 75.82638,68.58669 c -8.325935,-4.187951 -13.66786,2.779559 -18.062379,8.459261 -4.156516,12.135207 0.227241,16.637898 -4.28477,25.673489 -26.175509,0.0554 -39.560466,19.53301 -32.5504,42.28772 3.497556,7.10231 3.787541,6.56323 6.119213,9.26404 z"
       id="path899"
       sodipodi:nodetypes="ccccccccccccccccccccccc" />
    <g
       aria-label="A
Major
Funding, Inc.

www.amajorfunding.com"
       transform="translate(-32.355757,-0.90094672)"
       id="text910"
       style="font-style:normal;font-variant:normal;font-weight:bold;font-stretch:normal;font-size:11.2889px;line-height:0;font-family:Ubuntu;-inkscape-font-specification:'Ubuntu Bold';white-space:pre;shape-inside:url(#rect912);fill:#000000;fill-opacity:1;stroke:none">
      <path
         d="m 151.73303,74.649598 q -0.2794,-0.9144 -0.635,-1.8796 -0.3302,-0.9652 -0.6604,-1.9304 h -6.858 q -0.3302,0.9652 -0.6858,1.9304 -0.3302,0.9652 -0.6096,1.8796 h -4.1148 q 0.9906,-2.8448 1.8796,-5.2578 0.889,-2.413 1.7272,-4.5466 0.8636,-2.1336 1.6764,-4.0386 0.8382,-1.9304 1.7272,-3.7592 h 3.7846 q 0.8636,1.8288 1.7018,3.7592 0.8382,1.905 1.6764,4.0386 0.8636,2.1336 1.7526,4.5466 0.889,2.413 1.8796,5.2578 z m -4.7498,-13.6144 q -0.127,0.381 -0.381,1.0414 -0.254,0.6604 -0.5842,1.524 -0.3302,0.8636 -0.7366,1.905 -0.381,1.0414 -0.7874,2.1844 h 5.0038 q -0.4064,-1.143 -0.7874,-2.1844 -0.381,-1.0414 -0.7366,-1.905 -0.3302,-0.8636 -0.5842,-1.524 -0.254,-0.6604 -0.4064,-1.0414 z"
         style="font-style:normal;font-variant:normal;font-weight:bold;font-stretch:normal;font-size:25.4px;line-height:1.55;font-family:Ubuntu;-inkscape-font-specification:'Ubuntu Bold';text-align:center;text-anchor:middle"
         id="path1037" />
      <path
         d="m 118.62572,96.417393 q 0.4572,0.8382 1.0414,2.0828 0.6096,1.2192 1.2446,2.666997 0.6604,1.4224 1.2954,2.921 0.635,1.4986 1.1938,2.8194 0.5588,-1.3208 1.1938,-2.8194 0.635,-1.4986 1.27,-2.921 0.6604,-1.447797 1.2446,-2.666997 0.6096,-1.2446 1.0668,-2.0828 h 3.6068 q 0.254,1.7526 0.4572,3.936997 0.2286,2.159 0.381,4.5212 0.1778,2.3368 0.3048,4.699 0.1524,2.3622 0.254,4.445 h -3.8608 q -0.0762,-2.5654 -0.2032,-5.588 -0.127,-3.0226 -0.381,-6.096 -0.4572,1.0668 -1.016,2.3622 -0.5588,1.2954 -1.1176,2.5908 -0.5334,1.2954 -1.0414,2.4892 -0.508,1.1684 -0.8636,2.0066 h -2.7686 q -0.3556,-0.8382 -0.8636,-2.0066 -0.508,-1.1938 -1.0668,-2.4892 -0.5334,-1.2954 -1.0922,-2.5908 -0.5588,-1.2954 -1.016,-2.3622 -0.254,3.0734 -0.381,6.096 -0.127,3.0226 -0.2032,5.588 h -3.8608 q 0.1016,-2.0828 0.2286,-4.445 0.1524,-2.3622 0.3048,-4.699 0.1778,-2.3622 0.381,-4.5212 0.2286,-2.184397 0.4826,-3.936997 z"
         style="font-style:normal;font-variant:normal;font-weight:bold;font-stretch:normal;font-size:25.4px;line-height:1.55;font-family:Ubuntu;-inkscape-font-specification:'Ubuntu Bold';text-align:center;text-anchor:middle"
         id="path1039" />
      <path
         d="m 141.57422,111.37799 q 0.5588,0 1.0668,-0.0254 0.508,-0.0254 0.8128,-0.0762 v -2.8702 q -0.2286,-0.0508 -0.6858,-0.1016 -0.4572,-0.0508 -0.8382,-0.0508 -0.5334,0 -1.016,0.0762 -0.4572,0.0508 -0.8128,0.2286 -0.3556,0.1778 -0.5588,0.4826 -0.2032,0.3048 -0.2032,0.762 0,0.889 0.5842,1.2446 0.6096,0.3302 1.651,0.3302 z m -0.3048,-11.0744 q 1.6764,0 2.794,0.381 1.1176,0.381 1.778,1.0922 0.6858,0.7112 0.9652,1.7272 0.2794,1.016 0.2794,2.2606 v 7.874 q -0.8128,0.1778 -2.2606,0.4064 -1.4478,0.254 -3.5052,0.254 -1.2954,0 -2.3622,-0.2286 -1.0414,-0.2286 -1.8034,-0.7366 -0.762,-0.5334 -1.1684,-1.3716 -0.4064,-0.8382 -0.4064,-2.0574 0,-1.1684 0.4572,-1.9812 0.4826,-0.8128 1.27,-1.2954 0.7874,-0.4826 1.8034,-0.6858 1.016,-0.2286 2.1082,-0.2286 0.7366,0 1.2954,0.0762 0.5842,0.0508 0.9398,0.1524 v -0.3556 q 0,-0.9652 -0.5842,-1.5494 -0.5842,-0.5842 -2.032,-0.5842 -0.9652,0 -1.905,0.1524 -0.9398,0.127 -1.6256,0.381 l -0.4826,-3.048 q 0.3302,-0.1016 0.8128,-0.2032 0.508,-0.127 1.0922,-0.2032 0.5842,-0.1016 1.2192,-0.1524 0.6604,-0.0762 1.3208,-0.0762 z"
         style="font-style:normal;font-variant:normal;font-weight:bold;font-stretch:normal;font-size:25.4px;line-height:1.55;font-family:Ubuntu;-inkscape-font-specification:'Ubuntu Bold';text-align:center;text-anchor:middle"
         id="path1041" />
      <path
         d="m 149.26367,118.71859 q -0.3556,0 -1.0414,-0.0762 -0.7112,-0.0762 -1.3208,-0.2794 l 0.508,-3.0734 q 0.381,0.127 0.7112,0.1778 0.3048,0.0508 0.7874,0.0508 0.889,0 1.2446,-0.5334 0.3556,-0.5334 0.3556,-1.5494 v -12.7762 h 3.7846 v 12.8778 q 0,2.6416 -1.2954,3.9116 -1.2954,1.27 -3.7338,1.27 z m 5.3848,-21.920197 q 0,1.0414 -0.6858,1.651 -0.6604,0.5842 -1.5748,0.5842 -0.9144,0 -1.6002,-0.5842 -0.6604,-0.6096 -0.6604,-1.651 0,-1.0414 0.6604,-1.6256 0.6858,-0.6096 1.6002,-0.6096 0.9144,0 1.5748,0.6096 0.6858,0.5842 0.6858,1.6256 z"
         style="font-style:normal;font-variant:normal;font-weight:bold;font-stretch:normal;font-size:25.4px;line-height:1.55;font-family:Ubuntu;-inkscape-font-specification:'Ubuntu Bold';text-align:center;text-anchor:middle"
         id="path1043" />
      <path
         d="m 170.34726,107.31399 q 0,1.5748 -0.4572,2.8956 -0.4572,1.2954 -1.3208,2.2352 -0.8636,0.9144 -2.0828,1.4224 -1.1938,0.508 -2.6924,0.508 -1.4732,0 -2.6924,-0.508 -1.1938,-0.508 -2.0574,-1.4224 -0.8636,-0.9398 -1.3462,-2.2352 -0.4826,-1.3208 -0.4826,-2.8956 0,-1.5748 0.4826,-2.8702 0.508,-1.2954 1.3716,-2.2098 0.889,-0.9144 2.0828,-1.4224 1.2192,-0.508 2.6416,-0.508 1.4478,0 2.6416,0.508 1.2192,0.508 2.0828,1.4224 0.8636,0.9144 1.3462,2.2098 0.4826,1.2954 0.4826,2.8702 z m -3.8608,0 q 0,-1.7526 -0.7112,-2.7432 -0.6858,-1.016 -1.9812,-1.016 -1.2954,0 -2.0066,1.016 -0.7112,0.9906 -0.7112,2.7432 0,1.7526 0.7112,2.794 0.7112,1.016 2.0066,1.016 1.2954,0 1.9812,-1.016 0.7112,-1.0414 0.7112,-2.794 z"
         style="font-style:normal;font-variant:normal;font-weight:bold;font-stretch:normal;font-size:25.4px;line-height:1.55;font-family:Ubuntu;-inkscape-font-specification:'Ubuntu Bold';text-align:center;text-anchor:middle"
         id="path1045" />
      <path
         d="m 181.33077,104.01199 q -0.508,-0.127 -1.1938,-0.254 -0.6858,-0.1524 -1.4732,-0.1524 -0.3556,0 -0.8636,0.0762 -0.4826,0.0508 -0.7366,0.127 v 10.2108 h -3.7846 v -12.6492 q 1.016,-0.3556 2.3876,-0.6604 1.397,-0.3302 3.0988,-0.3302 0.3048,0 0.7366,0.0508 0.4318,0.0254 0.8636,0.1016 0.4318,0.0508 0.8636,0.1524 0.4318,0.0762 0.7366,0.2032 z"
         style="font-style:normal;font-variant:normal;font-weight:bold;font-stretch:normal;font-size:25.4px;line-height:1.55;font-family:Ubuntu;-inkscape-font-specification:'Ubuntu Bold';text-align:center;text-anchor:middle"
         id="path1047" />
      <path
         d="m 73.32204,153.38959 v -17.6022 h 11.7856 v 3.3274 h -7.8232 v 3.683 h 6.9596 v 3.3274 h -6.9596 v 7.2644 z"
         style="font-style:normal;font-variant:normal;font-weight:bold;font-stretch:normal;font-size:25.4px;line-height:1.55;font-family:Ubuntu;-inkscape-font-specification:'Ubuntu Bold';text-align:center;text-anchor:middle"
         id="path1049" />
      <path
         d="m 98.561703,152.93239 q -0.9652,0.2794 -2.4892,0.508 -1.524,0.254 -3.2004,0.254 -1.7018,0 -2.8448,-0.4572 -1.1176,-0.4572 -1.778,-1.27 -0.6604,-0.8382 -0.9398,-1.9812 -0.2794,-1.143 -0.2794,-2.5146 v -7.4422 h 3.7846 v 6.985 q 0,1.8288 0.4826,2.6416 0.4826,0.8128 1.8034,0.8128 0.4064,0 0.8636,-0.0254 0.4572,-0.0508 0.8128,-0.1016 v -10.3124 h 3.7846 z"
         style="font-style:normal;font-variant:normal;font-weight:bold;font-stretch:normal;font-size:25.4px;line-height:1.55;font-family:Ubuntu;-inkscape-font-specification:'Ubuntu Bold';text-align:center;text-anchor:middle"
         id="path1051" />
      <path
         d="m 102.13913,140.48639 q 0.9652,-0.2794 2.4892,-0.508 1.524,-0.254 3.2004,-0.254 1.7018,0 2.8194,0.4572 1.143,0.4318 1.8034,1.2446 0.6604,0.8128 0.9398,1.9304 0.2794,1.1176 0.2794,2.4892 v 7.5438 h -3.7846 v -7.0866 q 0,-1.8288 -0.4826,-2.5908 -0.4826,-0.762 -1.8034,-0.762 -0.4064,0 -0.8636,0.0508 -0.4572,0.0254 -0.8128,0.0762 v 10.3124 h -3.7846 z"
         style="font-style:normal;font-variant:normal;font-weight:bold;font-stretch:normal;font-size:25.4px;line-height:1.55;font-family:Ubuntu;-inkscape-font-specification:'Ubuntu Bold';text-align:center;text-anchor:middle"
         id="path1053" />
      <path
         d="m 120.34696,146.60779 q 0,1.7526 0.7874,2.8194 0.7874,1.0668 2.3368,1.0668 0.508,0 0.9398,-0.0254 0.4318,-0.0508 0.7112,-0.1016 v -6.8834 q -0.3556,-0.2286 -0.9398,-0.381 -0.5588,-0.1524 -1.143,-0.1524 -2.6924,0 -2.6924,3.6576 z m 8.5598,6.35 q -0.508,0.1524 -1.1684,0.3048 -0.6604,0.127 -1.397,0.2286 -0.7112,0.1016 -1.4732,0.1524 -0.7366,0.0762 -1.4224,0.0762 -1.651,0 -2.9464,-0.4826 -1.2954,-0.4826 -2.1844,-1.3716 -0.889,-0.9144 -1.3716,-2.1844 -0.4572,-1.2954 -0.4572,-2.8956 0,-1.6256 0.4064,-2.921 0.4064,-1.3208 1.1684,-2.2352 0.762,-0.9144 1.8542,-1.397 1.1176,-0.4826 2.54,-0.4826 0.7874,0 1.397,0.1524 0.635,0.1524 1.27,0.4318 v -6.0452 l 3.7846,-0.6096 z"
         style="font-style:normal;font-variant:normal;font-weight:bold;font-stretch:normal;font-size:25.4px;line-height:1.55;font-family:Ubuntu;-inkscape-font-specification:'Ubuntu Bold';text-align:center;text-anchor:middle"
         id="path1055" />
      <path
         d="m 136.23506,153.38959 h -3.7846 v -13.3604 h 3.7846 z m 0.3556,-17.2212 q 0,1.0414 -0.6858,1.651 -0.6604,0.5842 -1.5748,0.5842 -0.9144,0 -1.6002,-0.5842 -0.6604,-0.6096 -0.6604,-1.651 0,-1.0414 0.6604,-1.6256 0.6858,-0.6096 1.6002,-0.6096 0.9144,0 1.5748,0.6096 0.6858,0.5842 0.6858,1.6256 z"
         style="font-style:normal;font-variant:normal;font-weight:bold;font-stretch:normal;font-size:25.4px;line-height:1.55;font-family:Ubuntu;-inkscape-font-specification:'Ubuntu Bold';text-align:center;text-anchor:middle"
         id="path1057" />
      <path
         d="m 139.79265,140.48639 q 0.9652,-0.2794 2.4892,-0.508 1.524,-0.254 3.2004,-0.254 1.7018,0 2.8194,0.4572 1.143,0.4318 1.8034,1.2446 0.6604,0.8128 0.9398,1.9304 0.2794,1.1176 0.2794,2.4892 v 7.5438 h -3.7846 v -7.0866 q 0,-1.8288 -0.4826,-2.5908 -0.4826,-0.762 -1.8034,-0.762 -0.4064,0 -0.8636,0.0508 -0.4572,0.0254 -0.8128,0.0762 v 10.3124 h -3.7846 z"
         style="font-style:normal;font-variant:normal;font-weight:bold;font-stretch:normal;font-size:25.4px;line-height:1.55;font-family:Ubuntu;-inkscape-font-specification:'Ubuntu Bold';text-align:center;text-anchor:middle"
         id="path1059" />
      <path
         d="m 158.00048,146.27759 q 0,3.175 2.5654,3.175 0.5842,0 1.0922,-0.1524 0.508,-0.1524 0.8636,-0.3556 v -6.0452 q -0.2794,-0.0508 -0.6604,-0.0762 -0.381,-0.0508 -0.889,-0.0508 -1.4986,0 -2.2352,0.9906 -0.7366,0.9906 -0.7366,2.5146 z m 8.3058,5.4356 q 0,3.2766 -1.6764,4.8514 -1.651,1.6002 -5.1308,1.6002 -1.2192,0 -2.4384,-0.2286 -1.2192,-0.2032 -2.2606,-0.5588 l 0.6604,-3.175 q 0.889,0.3556 1.8542,0.5588 0.9906,0.2032 2.2352,0.2032 1.6256,0 2.286,-0.7112 0.6858,-0.7112 0.6858,-1.8288 v -0.4826 q -0.6096,0.2794 -1.27,0.4318 -0.635,0.127 -1.397,0.127 -2.7686,0 -4.2418,-1.6256 -1.4732,-1.651 -1.4732,-4.5974 0,-1.4732 0.4572,-2.667 0.4572,-1.2192 1.3208,-2.0828 0.889,-0.8636 2.159,-1.3208 1.27,-0.4826 2.8702,-0.4826 0.6858,0 1.397,0.0762 0.7366,0.0508 1.4478,0.1524 0.7112,0.1016 1.3462,0.254 0.6604,0.127 1.1684,0.2794 z"
         style="font-style:normal;font-variant:normal;font-weight:bold;font-stretch:normal;font-size:25.4px;line-height:1.55;font-family:Ubuntu;-inkscape-font-specification:'Ubuntu Bold';text-align:center;text-anchor:middle"
         id="path1061" />
      <path
         d="m 173.43733,149.52879 q 0.0508,0.6096 0.0508,0.8636 0.0254,0.254 0.0254,0.4318 0,0.762 -0.1524,1.6256 -0.127,0.8382 -0.381,1.7018 -0.254,0.8636 -0.635,1.7272 -0.381,0.8636 -0.8636,1.651 l -2.9718,-0.7366 q 0.5842,-1.6764 0.8128,-3.1496 0.2286,-1.4732 0.2286,-2.4384 0,-0.1524 -0.0254,-0.381 0,-0.254 -0.0254,-0.508 0,-0.254 -0.0254,-0.4826 0,-0.2286 0,-0.3048 z"
         style="font-style:normal;font-variant:normal;font-weight:bold;font-stretch:normal;font-size:25.4px;line-height:1.55;font-family:Ubuntu;-inkscape-font-specification:'Ubuntu Bold';text-align:center;text-anchor:middle"
         id="path1063" />
      <path
         d="m 182.46267,135.78739 h 3.9624 v 17.6022 h -3.9624 z"
         style="font-style:normal;font-variant:normal;font-weight:bold;font-stretch:normal;font-size:25.4px;line-height:1.55;font-family:Ubuntu;-inkscape-font-specification:'Ubuntu Bold';text-align:center;text-anchor:middle"
         id="path1065" />
      <path
         d="m 190.24539,140.48639 q 0.9652,-0.2794 2.4892,-0.508 1.524,-0.254 3.2004,-0.254 1.7018,0 2.8194,0.4572 1.143,0.4318 1.8034,1.2446 0.6604,0.8128 0.9398,1.9304 0.2794,1.1176 0.2794,2.4892 v 7.5438 h -3.7846 v -7.0866 q 0,-1.8288 -0.4826,-2.5908 -0.4826,-0.762 -1.8034,-0.762 -0.4064,0 -0.8636,0.0508 -0.4572,0.0254 -0.8128,0.0762 v 10.3124 h -3.7846 z"
         style="font-style:normal;font-variant:normal;font-weight:bold;font-stretch:normal;font-size:25.4px;line-height:1.55;font-family:Ubuntu;-inkscape-font-specification:'Ubuntu Bold';text-align:center;text-anchor:middle"
         id="path1067" />
      <path
         d="m 204.59242,146.70939 q 0,-1.4478 0.4572,-2.7178 0.4826,-1.2954 1.3716,-2.2352 0.889,-0.9652 2.159,-1.524 1.27,-0.5588 2.8956,-0.5588 1.0668,0 1.9558,0.2032 0.889,0.1778 1.7272,0.5334 l -0.7874,3.0226 q -0.5334,-0.2032 -1.1684,-0.3556 -0.635,-0.1524 -1.4224,-0.1524 -1.6764,0 -2.5146,1.0414 -0.8128,1.0414 -0.8128,2.7432 0,1.8034 0.762,2.794 0.7874,0.9906 2.7178,0.9906 0.6858,0 1.4732,-0.127 0.7874,-0.127 1.4478,-0.4064 l 0.5334,3.0988 q -0.6604,0.2794 -1.651,0.4826 -0.9906,0.2032 -2.1844,0.2032 -1.8288,0 -3.1496,-0.5334 -1.3208,-0.5588 -2.1844,-1.4986 -0.8382,-0.9398 -1.2446,-2.2098 -0.381,-1.2954 -0.381,-2.794 z"
         style="font-style:normal;font-variant:normal;font-weight:bold;font-stretch:normal;font-size:25.4px;line-height:1.55;font-family:Ubuntu;-inkscape-font-specification:'Ubuntu Bold';text-align:center;text-anchor:middle"
         id="path1069" />
      <path
         d="m 222.0823,151.38299 q 0,1.143 -0.7366,1.7526 -0.7112,0.5842 -1.6256,0.5842 -0.9144,0 -1.651,-0.5842 -0.7112,-0.6096 -0.7112,-1.7526 0,-1.143 0.7112,-1.7272 0.7366,-0.6096 1.651,-0.6096 0.9144,0 1.6256,0.6096 0.7366,0.5842 0.7366,1.7272 z"
         style="font-style:normal;font-variant:normal;font-weight:bold;font-stretch:normal;font-size:25.4px;line-height:1.55;font-family:Ubuntu;-inkscape-font-specification:'Ubuntu Bold';text-align:center;text-anchor:middle"
         id="path1071" />
    </g>
    <g
       id="g1137"
       transform="translate(-43.613848,-7.3168569)">
      <path
         d="m 101.18453,185.10939 q -0.19756,0.75071 -0.42475,1.49154 -0.21731,0.74083 -0.46425,1.49155 h -1.145825 q -0.1778,-0.41487 -0.385233,-0.98778 -0.207433,-0.57291 -0.434622,-1.2446 -0.217311,-0.68157 -0.454378,-1.43228 -0.227189,-0.76059 -0.4445,-1.53106 h 1.550811 q 0.07902,0.3556 0.167922,0.78035 0.09878,0.41486 0.197556,0.85936 0.108656,0.4445 0.217311,0.89888 0.118534,0.4445 0.237067,0.85937 0.128411,-0.43462 0.246941,-0.889 0.12841,-0.45438 0.23707,-0.889 0.11853,-0.4445 0.21731,-0.84949 0.10866,-0.41487 0.18768,-0.77047 h 1.0668 q 0.079,0.3556 0.1778,0.77047 0.0988,0.40499 0.20743,0.84949 0.10866,0.43462 0.22719,0.889 0.11854,0.45438 0.24695,0.889 0.11853,-0.41487 0.23706,-0.85937 0.11854,-0.45438 0.21731,-0.89888 0.10866,-0.4445 0.19756,-0.85936 0.0988,-0.42475 0.1778,-0.78035 h 1.53106 q -0.21732,0.77047 -0.45438,1.53106 -0.22719,0.75071 -0.45438,1.43228 -0.21731,0.67169 -0.43462,1.2446 -0.20744,0.57291 -0.38524,0.98778 h -1.14582 q -0.24694,-0.75072 -0.48401,-1.49155 -0.23707,-0.74083 -0.43462,-1.49154 z"
         style="font-style:normal;font-variant:normal;font-weight:bold;font-stretch:normal;font-size:9.87778px;line-height:1.15;font-family:Ubuntu;-inkscape-font-specification:'Ubuntu Bold'"
         id="path1075" />
      <path
         d="m 93.255295,185.10939 q -0.197556,0.75071 -0.424745,1.49154 -0.217311,0.74083 -0.464256,1.49155 h -1.145822 q -0.1778,-0.41487 -0.385234,-0.98778 -0.207433,-0.57291 -0.434622,-1.2446 -0.217311,-0.68157 -0.454378,-1.43228 -0.227189,-0.76059 -0.4445,-1.53106 h 1.550812 q 0.07902,0.3556 0.167922,0.78035 0.09878,0.41486 0.197555,0.85936 0.108656,0.4445 0.217312,0.89888 0.118533,0.4445 0.237066,0.85937 0.128411,-0.43462 0.246945,-0.889 0.128411,-0.45438 0.237067,-0.889 0.118533,-0.4445 0.217311,-0.84949 0.108655,-0.41487 0.187678,-0.77047 h 1.0668 q 0.07902,0.3556 0.1778,0.77047 0.09878,0.40499 0.207433,0.84949 0.108656,0.43462 0.227189,0.889 0.118533,0.45438 0.246945,0.889 0.118533,-0.41487 0.237066,-0.85937 0.118534,-0.45438 0.217312,-0.89888 0.108655,-0.4445 0.197555,-0.85936 0.09878,-0.42475 0.1778,-0.78035 h 1.531056 q -0.217311,0.77047 -0.454378,1.53106 -0.227189,0.75071 -0.454378,1.43228 -0.217311,0.67169 -0.434622,1.2446 -0.207433,0.57291 -0.385233,0.98778 h -1.145823 q -0.246944,-0.75072 -0.484011,-1.49155 -0.237067,-0.74083 -0.434622,-1.49154 z"
         style="font-style:normal;font-variant:normal;font-weight:bold;font-stretch:normal;font-size:9.87778px;line-height:1.15;font-family:Ubuntu;-inkscape-font-specification:'Ubuntu Bold'"
         id="path1073" />
      <path
         d="m 109.11376,185.10939 q -0.19755,0.75071 -0.42474,1.49154 -0.21731,0.74083 -0.46426,1.49155 h -1.14582 q -0.1778,-0.41487 -0.38523,-0.98778 -0.20744,-0.57291 -0.43463,-1.2446 -0.21731,-0.68157 -0.45437,-1.43228 -0.22719,-0.76059 -0.4445,-1.53106 h 1.55081 q 0.079,0.3556 0.16792,0.78035 0.0988,0.41486 0.19755,0.85936 0.10866,0.4445 0.21732,0.89888 0.11853,0.4445 0.23706,0.85937 0.12841,-0.43462 0.24695,-0.889 0.12841,-0.45438 0.23706,-0.889 0.11854,-0.4445 0.21731,-0.84949 0.10866,-0.41487 0.18768,-0.77047 h 1.0668 q 0.079,0.3556 0.1778,0.77047 0.0988,0.40499 0.20744,0.84949 0.10865,0.43462 0.22719,0.889 0.11853,0.45438 0.24694,0.889 0.11853,-0.41487 0.23707,-0.85937 0.11853,-0.45438 0.21731,-0.89888 0.10865,-0.4445 0.19755,-0.85936 0.0988,-0.42475 0.1778,-0.78035 h 1.53106 q -0.21731,0.77047 -0.45438,1.53106 -0.22719,0.75071 -0.45438,1.43228 -0.21731,0.67169 -0.43462,1.2446 -0.20743,0.57291 -0.38523,0.98778 h -1.14582 q -0.24695,-0.75072 -0.48402,-1.49155 -0.23706,-0.74083 -0.43462,-1.49154 z"
         style="font-style:normal;font-variant:normal;font-weight:bold;font-stretch:normal;font-size:9.87778px;line-height:1.15;font-family:Ubuntu;-inkscape-font-specification:'Ubuntu Bold'"
         id="path1077" />
      <path
         d="m 114.61044,187.31213 q 0,0.4445 -0.28646,0.68157 -0.27658,0.22719 -0.63218,0.22719 -0.3556,0 -0.64205,-0.22719 -0.27658,-0.23707 -0.27658,-0.68157 0,-0.4445 0.27658,-0.67169 0.28645,-0.23706 0.64205,-0.23706 0.3556,0 0.63218,0.23706 0.28646,0.22719 0.28646,0.67169 z"
         style="font-style:normal;font-variant:normal;font-weight:bold;font-stretch:normal;font-size:9.87778px;line-height:1.15;font-family:Ubuntu;-inkscape-font-specification:'Ubuntu Bold'"
         id="path1079" />
      <path
         d="m 117.29519,187.06519 q 0.21731,0 0.41486,-0.01 0.19756,-0.01 0.31609,-0.0296 v -1.11619 q -0.0889,-0.0198 -0.2667,-0.0395 -0.1778,-0.0198 -0.32596,-0.0198 -0.20744,0 -0.39511,0.0296 -0.1778,0.0198 -0.31609,0.0889 -0.13829,0.0692 -0.21731,0.18768 -0.079,0.11853 -0.079,0.29633 0,0.34573 0.22719,0.48402 0.23707,0.12841 0.64206,0.12841 z m -0.11854,-4.30672 q 0.65194,0 1.08656,0.14817 0.43462,0.14817 0.69144,0.42475 0.26671,0.27657 0.37536,0.67168 0.10866,0.39512 0.10866,0.87913 v 3.06211 q -0.31609,0.0691 -0.87913,0.15804 -0.56303,0.0988 -1.36313,0.0988 -0.50377,0 -0.91863,-0.0889 -0.40499,-0.0889 -0.70133,-0.28645 -0.29633,-0.20744 -0.45437,-0.5334 -0.15805,-0.32597 -0.15805,-0.8001 0,-0.45438 0.1778,-0.77047 0.18768,-0.31609 0.49389,-0.50377 0.30621,-0.18768 0.70132,-0.2667 0.39511,-0.0889 0.81986,-0.0889 0.28645,0 0.50377,0.0296 0.22718,0.0198 0.36547,0.0593 v -0.13829 q 0,-0.37535 -0.22719,-0.60254 -0.22718,-0.22719 -0.79022,-0.22719 -0.37535,0 -0.74083,0.0593 -0.36548,0.0494 -0.63218,0.14816 l -0.18768,-1.18533 q 0.12841,-0.0395 0.31609,-0.079 0.19756,-0.0494 0.42475,-0.079 0.22719,-0.0395 0.47413,-0.0593 0.25682,-0.0296 0.51364,-0.0296 z"
         style="font-style:normal;font-variant:normal;font-weight:bold;font-stretch:normal;font-size:9.87778px;line-height:1.15;font-family:Ubuntu;-inkscape-font-specification:'Ubuntu Bold'"
         id="path1081" />
      <path
         d="m 123.62422,185.33657 q 0,-0.7112 -0.18768,-1.00753 -0.1778,-0.29633 -0.6223,-0.29633 -0.13829,0 -0.28645,0.0197 -0.14817,0.01 -0.28646,0.0296 v 4.01038 h -1.47179 v -5.01792 q 0.18768,-0.0494 0.43462,-0.0988 0.25683,-0.0593 0.5334,-0.0988 0.28646,-0.0494 0.58279,-0.0692 0.29634,-0.0296 0.58279,-0.0296 0.56304,0 0.90876,0.14817 0.3556,0.13829 0.58279,0.33584 0.31609,-0.22719 0.72107,-0.3556 0.41487,-0.12841 0.76059,-0.12841 0.6223,0 1.01742,0.1778 0.40498,0.16792 0.64205,0.48401 0.23707,0.31609 0.32597,0.75071 0.0889,0.43462 0.0889,0.96802 v 2.93371 h -1.47179 v -2.75591 q 0,-0.7112 -0.18768,-1.00753 -0.1778,-0.29633 -0.6223,-0.29633 -0.11853,0 -0.33584,0.0593 -0.20744,0.0593 -0.34573,0.14817 0.0691,0.22719 0.0889,0.48401 0.0198,0.24695 0.0198,0.5334 v 2.83493 h -1.47179 z"
         style="font-style:normal;font-variant:normal;font-weight:bold;font-stretch:normal;font-size:9.87778px;line-height:1.15;font-family:Ubuntu;-inkscape-font-specification:'Ubuntu Bold'"
         id="path1083" />
      <path
         d="m 131.26299,187.06519 q 0.21731,0 0.41486,-0.01 0.19756,-0.01 0.31609,-0.0296 v -1.11619 q -0.0889,-0.0198 -0.2667,-0.0395 -0.1778,-0.0198 -0.32596,-0.0198 -0.20744,0 -0.39512,0.0296 -0.1778,0.0198 -0.31609,0.0889 -0.13828,0.0692 -0.21731,0.18768 -0.079,0.11853 -0.079,0.29633 0,0.34573 0.22719,0.48402 0.23707,0.12841 0.64206,0.12841 z m -0.11854,-4.30672 q 0.65194,0 1.08656,0.14817 0.43462,0.14817 0.69144,0.42475 0.2667,0.27657 0.37536,0.67168 0.10865,0.39512 0.10865,0.87913 v 3.06211 q -0.31608,0.0691 -0.87912,0.15804 -0.56303,0.0988 -1.36313,0.0988 -0.50377,0 -0.91864,-0.0889 -0.40498,-0.0889 -0.70132,-0.28645 -0.29633,-0.20744 -0.45438,-0.5334 -0.15804,-0.32597 -0.15804,-0.8001 0,-0.45438 0.1778,-0.77047 0.18768,-0.31609 0.49389,-0.50377 0.30621,-0.18768 0.70132,-0.2667 0.39511,-0.0889 0.81986,-0.0889 0.28645,0 0.50376,0.0296 0.22719,0.0198 0.36548,0.0593 v -0.13829 q 0,-0.37535 -0.22719,-0.60254 -0.22719,-0.22719 -0.79022,-0.22719 -0.37536,0 -0.74083,0.0593 -0.36548,0.0494 -0.63218,0.14816 l -0.18768,-1.18533 q 0.12841,-0.0395 0.31609,-0.079 0.19756,-0.0494 0.42474,-0.079 0.22719,-0.0395 0.47414,-0.0593 0.25682,-0.0296 0.51364,-0.0296 z"
         style="font-style:normal;font-variant:normal;font-weight:bold;font-stretch:normal;font-size:9.87778px;line-height:1.15;font-family:Ubuntu;-inkscape-font-specification:'Ubuntu Bold'"
         id="path1085" />
      <path
         d="m 134.25333,189.91986 q -0.13829,0 -0.40499,-0.0296 -0.27658,-0.0296 -0.51364,-0.10865 l 0.19755,-1.19522 q 0.14817,0.0494 0.27658,0.0691 0.11853,0.0198 0.30621,0.0198 0.34572,0 0.48401,-0.20743 0.13829,-0.20743 0.13829,-0.60254 v -4.96853 h 1.47179 v 5.00804 q 0,1.02729 -0.50377,1.52118 -0.50376,0.49388 -1.45203,0.49388 z m 2.09409,-8.52452 q 0,0.40499 -0.2667,0.64206 -0.25682,0.22719 -0.61242,0.22719 -0.3556,0 -0.6223,-0.22719 -0.25683,-0.23707 -0.25683,-0.64206 0,-0.40499 0.25683,-0.63218 0.2667,-0.23706 0.6223,-0.23706 0.3556,0 0.61242,0.23706 0.2667,0.22719 0.2667,0.63218 z"
         style="font-style:normal;font-variant:normal;font-weight:bold;font-stretch:normal;font-size:9.87778px;line-height:1.15;font-family:Ubuntu;-inkscape-font-specification:'Ubuntu Bold'"
         id="path1087" />
      <path
         d="m 142.4525,185.48474 q 0,0.61242 -0.1778,1.12607 -0.1778,0.50377 -0.51364,0.86924 -0.33585,0.3556 -0.80998,0.55316 -0.46426,0.19755 -1.04704,0.19755 -0.57292,0 -1.04705,-0.19755 -0.46425,-0.19756 -0.8001,-0.55316 -0.33584,-0.36547 -0.52352,-0.86924 -0.18768,-0.51365 -0.18768,-1.12607 0,-0.61242 0.18768,-1.11619 0.19755,-0.50376 0.5334,-0.85936 0.34572,-0.3556 0.80998,-0.55316 0.47413,-0.19756 1.02729,-0.19756 0.56303,0 1.02728,0.19756 0.47414,0.19756 0.80998,0.55316 0.33585,0.3556 0.52352,0.85936 0.18768,0.50377 0.18768,1.11619 z m -1.50142,0 q 0,-0.68157 -0.27658,-1.0668 -0.2667,-0.39511 -0.77046,-0.39511 -0.50377,0 -0.78035,0.39511 -0.27658,0.38523 -0.27658,1.0668 0,0.68157 0.27658,1.08656 0.27658,0.39511 0.78035,0.39511 0.50376,0 0.77046,-0.39511 0.27658,-0.40499 0.27658,-1.08656 z"
         style="font-style:normal;font-variant:normal;font-weight:bold;font-stretch:normal;font-size:9.87778px;line-height:1.15;font-family:Ubuntu;-inkscape-font-specification:'Ubuntu Bold'"
         id="path1089" />
      <path
         d="m 146.72387,184.20063 q -0.19755,-0.0494 -0.46425,-0.0988 -0.2667,-0.0593 -0.57291,-0.0593 -0.13829,0 -0.33585,0.0296 -0.18768,0.0198 -0.28645,0.0494 v 3.97087 h -1.47179 v -4.91914 q 0.39511,-0.13829 0.92851,-0.25682 0.54328,-0.12841 1.20509,-0.12841 0.11853,0 0.28645,0.0198 0.16792,0.01 0.33585,0.0395 0.16792,0.0198 0.33584,0.0593 0.16792,0.0296 0.28646,0.079 z"
         style="font-style:normal;font-variant:normal;font-weight:bold;font-stretch:normal;font-size:9.87778px;line-height:1.15;font-family:Ubuntu;-inkscape-font-specification:'Ubuntu Bold'"
         id="path1091" />
      <path
         d="m 150.01194,180.42732 q 0.41486,0 0.76059,0.0889 0.34572,0.079 0.5334,0.15804 l -0.28646,1.17546 q -0.19756,-0.0889 -0.43462,-0.12841 -0.22719,-0.0494 -0.42475,-0.0494 -0.2667,0 -0.45437,0.079 -0.1778,0.0691 -0.28646,0.19756 -0.0988,0.12841 -0.14817,0.30621 -0.0395,0.1778 -0.0395,0.38523 v 0.25682 h 1.81751 v 1.22485 h -1.81751 v 3.97087 h -1.47179 v -5.47229 q 0,-1.00754 0.56304,-1.6002 0.57291,-0.59267 1.6891,-0.59267 z"
         style="font-style:normal;font-variant:normal;font-weight:bold;font-stretch:normal;font-size:9.87778px;line-height:1.15;font-family:Ubuntu;-inkscape-font-specification:'Ubuntu Bold'"
         id="path1093" />
      <path
         d="m 156.36212,187.91468 q -0.37536,0.10865 -0.96803,0.19755 -0.59266,0.0988 -1.2446,0.0988 -0.66181,0 -1.10631,-0.1778 -0.43462,-0.1778 -0.69144,-0.49389 -0.25682,-0.32597 -0.36548,-0.77047 -0.10866,-0.4445 -0.10866,-0.9779 v -2.89419 h 1.47179 v 2.71639 q 0,0.7112 0.18768,1.02729 0.18768,0.31609 0.70132,0.31609 0.15805,0 0.33585,-0.01 0.1778,-0.0198 0.31609,-0.0395 v -4.01038 h 1.47179 z"
         style="font-style:normal;font-variant:normal;font-weight:bold;font-stretch:normal;font-size:9.87778px;line-height:1.15;font-family:Ubuntu;-inkscape-font-specification:'Ubuntu Bold'"
         id="path1095" />
      <path
         d="m 157.75334,183.07456 q 0.37536,-0.10865 0.96802,-0.19755 0.59267,-0.0988 1.2446,-0.0988 0.66181,0 1.09644,0.1778 0.4445,0.16792 0.70132,0.48401 0.25682,0.31609 0.36548,0.75071 0.10865,0.43462 0.10865,0.96802 v 2.93371 h -1.47179 v -2.75591 q 0,-0.7112 -0.18767,-1.00753 -0.18768,-0.29633 -0.70133,-0.29633 -0.15804,0 -0.33584,0.0197 -0.1778,0.01 -0.31609,0.0296 v 4.01038 h -1.47179 z"
         style="font-style:normal;font-variant:normal;font-weight:bold;font-stretch:normal;font-size:9.87778px;line-height:1.15;font-family:Ubuntu;-inkscape-font-specification:'Ubuntu Bold'"
         id="path1097" />
      <path
         d="m 164.83417,185.45511 q 0,0.68157 0.30621,1.09643 0.30621,0.41487 0.90875,0.41487 0.19756,0 0.36548,-0.01 0.16792,-0.0197 0.27658,-0.0395 v -2.67688 q -0.13829,-0.0889 -0.36548,-0.14817 -0.21731,-0.0593 -0.4445,-0.0593 -1.04704,0 -1.04704,1.4224 z m 3.32881,2.46944 q -0.19756,0.0593 -0.45438,0.11854 -0.25682,0.0494 -0.54328,0.0889 -0.27658,0.0395 -0.57291,0.0593 -0.28645,0.0296 -0.55315,0.0296 -0.64206,0 -1.14583,-0.18768 -0.50376,-0.18768 -0.84949,-0.5334 -0.34572,-0.3556 -0.5334,-0.84949 -0.1778,-0.50377 -0.1778,-1.12607 0,-0.63218 0.15805,-1.13594 0.15804,-0.51365 0.45438,-0.86925 0.29633,-0.3556 0.72107,-0.54327 0.43463,-0.18768 0.98778,-0.18768 0.30621,0 0.54328,0.0593 0.24694,0.0593 0.49389,0.16793 v -2.35091 l 1.47179,-0.23707 z"
         style="font-style:normal;font-variant:normal;font-weight:bold;font-stretch:normal;font-size:9.87778px;line-height:1.15;font-family:Ubuntu;-inkscape-font-specification:'Ubuntu Bold'"
         id="path1099" />
      <path
         d="m 171.01287,188.09248 h -1.47179 v -5.19572 h 1.47179 z m 0.13829,-6.69714 q 0,0.40499 -0.2667,0.64206 -0.25682,0.22719 -0.61242,0.22719 -0.3556,0 -0.6223,-0.22719 -0.25682,-0.23707 -0.25682,-0.64206 0,-0.40499 0.25682,-0.63218 0.2667,-0.23706 0.6223,-0.23706 0.3556,0 0.61242,0.23706 0.2667,0.22719 0.2667,0.63218 z"
         style="font-style:normal;font-variant:normal;font-weight:bold;font-stretch:normal;font-size:9.87778px;line-height:1.15;font-family:Ubuntu;-inkscape-font-specification:'Ubuntu Bold'"
         id="path1101" />
      <path
         d="m 172.39638,183.07456 q 0.37535,-0.10865 0.96802,-0.19755 0.59267,-0.0988 1.2446,-0.0988 0.66181,0 1.09643,0.1778 0.4445,0.16792 0.70133,0.48401 0.25682,0.31609 0.36547,0.75071 0.10866,0.43462 0.10866,0.96802 v 2.93371 h -1.47179 v -2.75591 q 0,-0.7112 -0.18768,-1.00753 -0.18768,-0.29633 -0.70132,-0.29633 -0.15805,0 -0.33585,0.0197 -0.1778,0.01 -0.31608,0.0296 v 4.01038 h -1.47179 z"
         style="font-style:normal;font-variant:normal;font-weight:bold;font-stretch:normal;font-size:9.87778px;line-height:1.15;font-family:Ubuntu;-inkscape-font-specification:'Ubuntu Bold'"
         id="path1103" />
      <path
         d="m 179.4772,185.3267 q 0,1.23472 0.99766,1.23472 0.22719,0 0.42474,-0.0593 0.19756,-0.0593 0.33585,-0.13829 v -2.35091 q -0.10866,-0.0197 -0.25683,-0.0296 -0.14816,-0.0198 -0.34572,-0.0198 -0.58279,0 -0.86924,0.38524 -0.28646,0.38523 -0.28646,0.9779 z m 3.23004,2.11384 q 0,1.27424 -0.65194,1.88666 -0.64205,0.6223 -1.99531,0.6223 -0.47413,0 -0.94827,-0.0889 -0.47413,-0.079 -0.87912,-0.21731 l 0.25682,-1.23473 q 0.34573,0.13829 0.72108,0.21732 0.38524,0.079 0.86925,0.079 0.63217,0 0.889,-0.27658 0.2667,-0.27658 0.2667,-0.7112 v -0.18768 q -0.23707,0.10866 -0.49389,0.16792 -0.24695,0.0494 -0.54328,0.0494 -1.07668,0 -1.64959,-0.63217 -0.57291,-0.64206 -0.57291,-1.78788 0,-0.57291 0.1778,-1.03717 0.1778,-0.47413 0.51364,-0.80998 0.34573,-0.33584 0.83962,-0.51364 0.49388,-0.18768 1.11618,-0.18768 0.2667,0 0.54328,0.0296 0.28646,0.0198 0.56304,0.0593 0.27657,0.0395 0.52352,0.0988 0.25682,0.0494 0.45438,0.10865 z"
         style="font-style:normal;font-variant:normal;font-weight:bold;font-stretch:normal;font-size:9.87778px;line-height:1.15;font-family:Ubuntu;-inkscape-font-specification:'Ubuntu Bold'"
         id="path1105" />
      <path
         d="m 185.52981,187.31213 q 0,0.4445 -0.28646,0.68157 -0.27657,0.22719 -0.63217,0.22719 -0.3556,0 -0.64206,-0.22719 -0.27658,-0.23707 -0.27658,-0.68157 0,-0.4445 0.27658,-0.67169 0.28646,-0.23706 0.64206,-0.23706 0.3556,0 0.63217,0.23706 0.28646,0.22719 0.28646,0.67169 z"
         style="font-style:normal;font-variant:normal;font-weight:bold;font-stretch:normal;font-size:9.87778px;line-height:1.15;font-family:Ubuntu;-inkscape-font-specification:'Ubuntu Bold'"
         id="path1107" />
      <path
         d="m 185.98218,185.49462 q 0,-0.56303 0.1778,-1.05692 0.18768,-0.50377 0.5334,-0.86925 0.34572,-0.37535 0.83961,-0.59266 0.49389,-0.21732 1.12607,-0.21732 0.41487,0 0.76059,0.079 0.34572,0.0691 0.67169,0.20743 l -0.30621,1.17546 q -0.20744,-0.079 -0.45438,-0.13829 -0.24695,-0.0593 -0.55316,-0.0593 -0.65193,0 -0.9779,0.40499 -0.31609,0.40499 -0.31609,1.0668 0,0.70132 0.29634,1.08656 0.30621,0.38523 1.05692,0.38523 0.2667,0 0.57291,-0.0494 0.30621,-0.0494 0.56303,-0.15804 l 0.20744,1.20508 q -0.25683,0.10866 -0.64206,0.18768 -0.38523,0.079 -0.84949,0.079 -0.7112,0 -1.22484,-0.20743 -0.51365,-0.21731 -0.84949,-0.58279 -0.32597,-0.36548 -0.48401,-0.85936 -0.14817,-0.50377 -0.14817,-1.08656 z"
         style="font-style:normal;font-variant:normal;font-weight:bold;font-stretch:normal;font-size:9.87778px;line-height:1.15;font-family:Ubuntu;-inkscape-font-specification:'Ubuntu Bold'"
         id="path1109" />
      <path
         d="m 195.77708,185.48474 q 0,0.61242 -0.1778,1.12607 -0.1778,0.50377 -0.51364,0.86924 -0.33585,0.3556 -0.80998,0.55316 -0.46426,0.19755 -1.04705,0.19755 -0.57291,0 -1.04704,-0.19755 -0.46426,-0.19756 -0.8001,-0.55316 -0.33585,-0.36547 -0.52352,-0.86924 -0.18768,-0.51365 -0.18768,-1.12607 0,-0.61242 0.18768,-1.11619 0.19755,-0.50376 0.5334,-0.85936 0.34572,-0.3556 0.80997,-0.55316 0.47414,-0.19756 1.02729,-0.19756 0.56304,0 1.02729,0.19756 0.47414,0.19756 0.80998,0.55316 0.33584,0.3556 0.52352,0.85936 0.18768,0.50377 0.18768,1.11619 z m -1.50142,0 q 0,-0.68157 -0.27658,-1.0668 -0.2667,-0.39511 -0.77047,-0.39511 -0.50376,0 -0.78034,0.39511 -0.27658,0.38523 -0.27658,1.0668 0,0.68157 0.27658,1.08656 0.27658,0.39511 0.78034,0.39511 0.50377,0 0.77047,-0.39511 0.27658,-0.40499 0.27658,-1.08656 z"
         style="font-style:normal;font-variant:normal;font-weight:bold;font-stretch:normal;font-size:9.87778px;line-height:1.15;font-family:Ubuntu;-inkscape-font-specification:'Ubuntu Bold'"
         id="path1111" />
      <path
         d="m 199.77188,185.33657 q 0,-0.7112 -0.18768,-1.00753 -0.1778,-0.29633 -0.6223,-0.29633 -0.13829,0 -0.28646,0.0197 -0.14816,0.01 -0.28645,0.0296 v 4.01038 h -1.47179 v -5.01792 q 0.18767,-0.0494 0.43462,-0.0988 0.25682,-0.0593 0.5334,-0.0988 0.28646,-0.0494 0.58279,-0.0692 0.29633,-0.0296 0.58279,-0.0296 0.56303,0 0.90875,0.14817 0.3556,0.13829 0.58279,0.33584 0.31609,-0.22719 0.72108,-0.3556 0.41487,-0.12841 0.76059,-0.12841 0.6223,0 1.01741,0.1778 0.40499,0.16792 0.64206,0.48401 0.23706,0.31609 0.32596,0.75071 0.0889,0.43462 0.0889,0.96802 v 2.93371 h -1.47179 v -2.75591 q 0,-0.7112 -0.18767,-1.00753 -0.1778,-0.29633 -0.6223,-0.29633 -0.11854,0 -0.33585,0.0593 -0.20743,0.0593 -0.34572,0.14817 0.0691,0.22719 0.0889,0.48401 0.0198,0.24695 0.0198,0.5334 v 2.83493 h -1.47178 z"
         style="font-style:normal;font-variant:normal;font-weight:bold;font-stretch:normal;font-size:9.87778px;line-height:1.15;font-family:Ubuntu;-inkscape-font-specification:'Ubuntu Bold'"
         id="path1113" />
    </g>
  </g>
</svg>
